# xmcd
# Track frame offsets:
# 225
# 15584
# 30112
# 43072
# 55473
# 70667
# 82376
# 97337
# 112220
# 125595
# 137292
# 151660
# 163266
#
# Disc length: 2404 seconds
# Revision: 0
# Processed by: cddbd v1.4PL0 Copyright (c) Steve Scherf et al.
# Submitted via: VisiTrax 2.9.5.180 - For more info visit www.synapsa.com
#
DISCID=b009610d
DTITLE=Pat Roden - Pat Rode
DYEAR=1900
DGENRE=
TTITLE0=Ready to fall in love
TTITLE1=Lonesome dove
TTITLE2=I'll live to love agian
TTITLE3=After the fire is gone
TTITLE4=Every other weekend
TTITLE5=Workin' like a dog
TTITLE6=Isn't that what you told her
TTITLE7=Something about loving you
TTITLE8=All love need
TTITLE9=our old flame's (goin' out tonight)
TTITLE10=Somewhere i Kansas
TTITLE11=I tripped over your memory
TTITLE12=Never had a prayer
EXTD=
EXTT0=
EXTT1=
EXTT2=
EXTT3=
EXTT4=
EXTT5=
EXTT6=
EXTT7=
EXTT8=
EXTT9=
EXTT10=
EXTT11=
EXTT12=
PLAYORDER=
